<?xml version="1.0" standalone="no"?>
<!DOCTYPE svg PUBLIC "-//W3C//DTD SVG 20010904//EN"
 "http://www.w3.org/TR/2001/REC-SVG-20010904/DTD/svg10.dtd">
<svg version="1.0" xmlns="http://www.w3.org/2000/svg"
 width="2000.000000pt" height="2000.000000pt" viewBox="0 0 2000.000000 2000.000000"
 preserveAspectRatio="xMidYMid meet">

<g transform="translate(0.000000,2000.000000) scale(0.100000,-0.100000)"
fill="#000000" stroke="none">
<path d="M9515 19634 c-33 -2 -152 -11 -265 -19 -2157 -163 -4214 -1064 -5806
-2543 -1291 -1200 -2223 -2710 -2709 -4387 -187 -648 -293 -1238 -357 -2000
-18 -206 -18 -1155 0 -1370 40 -492 94 -873 181 -1294 376 -1798 1259 -3450
2546 -4760 798 -812 1642 -1424 2650 -1921 1083 -533 2238 -851 3480 -956 418
-35 1192 -30 1650 12 2110 190 4115 1085 5671 2532 879 818 1572 1749 2104
2827 535 1084 849 2233 957 3495 26 300 26 1195 0 1500 -139 1644 -638 3118
-1520 4490 -597 928 -1420 1809 -2317 2481 -1376 1030 -3000 1674 -4695 1863
-361 41 -510 48 -1010 51 -275 1 -527 1 -560 -1z m1110 -894 c2500 -178 4768
-1367 6320 -3314 1050 -1318 1707 -2936 1874 -4616 32 -321 41 -509 41 -880 0
-190 -5 -419 -10 -510 -97 -1576 -591 -3060 -1455 -4365 -997 -1505 -2419
-2661 -4095 -3328 -1356 -539 -2806 -733 -4285 -571 -863 94 -1779 341 -2585
699 -1541 683 -2850 1786 -3781 3185 -1223 1839 -1712 4062 -1373 6245 140
903 409 1750 820 2575 365 731 789 1357 1341 1977 143 161 557 570 726 718
828 722 1744 1271 2747 1645 851 318 1733 500 2665 550 198 11 848 5 1050 -10z"/>
<path d="M9470 18619 c-1584 -105 -3059 -609 -4355 -1487 -471 -319 -883 -662
-1296 -1079 -242 -244 -302 -309 -498 -543 -1192 -1423 -1893 -3190 -2011
-5070 -13 -213 -13 -807 0 -1020 88 -1404 496 -2738 1203 -3930 957 -1613
2417 -2879 4147 -3597 841 -349 1674 -552 2630 -640 247 -22 1142 -26 1390 -5
1191 100 2253 396 3275 912 1891 955 3353 2544 4150 4510 825 2035 845 4328
55 6382 -378 981 -926 1880 -1639 2683 -262 296 -703 715 -1021 970 -1108 889
-2401 1493 -3782 1764 -333 65 -642 108 -1023 142 -164 14 -1045 20 -1225 8z
m4665 -3819 c340 -30 637 -160 892 -387 l73 -65 -35 -62 c-42 -75 -44 -100
-10 -122 35 -23 66 -8 96 45 12 23 25 41 28 41 3 0 32 -37 64 -83 112 -157
208 -386 243 -577 15 -84 15 -90 -1 -106 -14 -14 -16 -28 -11 -66 4 -26 4 -48
2 -48 -3 0 -35 11 -72 25 -36 14 -75 25 -84 25 -27 0 -50 -28 -50 -60 0 -35
16 -44 135 -84 114 -38 108 -29 95 -131 -10 -82 -33 -195 -46 -229 -6 -14 49
-16 543 -16 600 0 623 -2 706 -58 23 -15 56 -46 74 -70 67 -88 63 36 63 -1889
l0 -1743 163 0 c183 0 223 -8 266 -51 48 -48 51 -76 44 -396 l-6 -292 -136 -4
c-100 -3 -156 -10 -211 -26 l-74 -21 -3096 2 -3095 3 -60 23 c-52 19 -78 22
-206 22 -132 0 -148 2 -152 18 -3 9 -13 52 -22 95 -9 43 -27 110 -40 148 l-24
69 63 0 62 0 0 148 c-1 166 8 194 74 235 32 20 50 22 222 25 l188 4 2 1766 3
1767 27 51 c33 63 103 126 166 151 44 17 100 18 800 21 708 2 753 4 747 20
-23 58 -47 214 -52 347 -12 329 80 643 268 910 70 98 263 299 282 292 7 -2 33
-44 59 -93 26 -49 56 -93 67 -98 25 -11 67 14 83 50 6 13 14 24 18 24 3 0 17
-25 29 -55 30 -72 57 -105 86 -105 30 0 55 25 55 53 0 39 -126 284 -149 292
-33 10 -56 -2 -77 -40 -10 -19 -21 -35 -24 -35 -5 0 -14 15 -48 81 -5 10 152
99 250 141 236 102 486 142 743 118z m-6066 -1806 c702 -104 1260 -650 1387
-1359 26 -145 24 -402 -4 -555 -136 -748 -761 -1306 -1524 -1359 -862 -60
-1619 531 -1765 1379 -22 128 -22 402 0 530 93 540 439 995 932 1225 308 145
626 190 974 139z m441 -3468 c983 -103 1447 -421 1603 -1098 21 -93 21 -98 24
-1710 l4 -1618 -421 0 -420 0 -2 1473 c-3 1433 -4 1473 -23 1526 -22 63 -82
131 -113 131 l-22 0 0 -1565 0 -1565 -1335 0 -1335 0 0 1565 0 1565 -25 0
c-39 0 -91 -60 -117 -137 l-23 -68 -3 -1462 -3 -1463 -414 0 -415 0 0 1593 c0
1420 2 1604 16 1688 110 641 555 997 1399 1118 121 18 253 31 450 45 28 2 268
2 535 1 362 -2 524 -7 640 -19z m-3103 -813 c-26 -79 -67 -230 -72 -267 l-7
-46 -1179 0 -1179 0 0 165 0 165 1221 0 c1159 0 1221 -1 1216 -17z m-107
-2043 l0 -1570 -915 0 -915 0 0 1570 0 1570 915 0 915 0 0 -1570z m11508 -2
l2 -1568 -3255 0 -3255 0 0 1570 0 1570 3253 -2 3252 -3 3 -1567z"/>
<path d="M13998 14136 c-85 -23 -166 -97 -198 -180 -8 -23 -12 -24 -41 -14
-43 15 -137 4 -187 -21 -57 -29 -110 -86 -141 -151 -21 -45 -25 -70 -25 -135
0 -89 20 -147 75 -216 l32 -40 -36 -37 c-152 -156 -89 -446 112 -517 49 -17
127 -20 165 -5 24 9 28 6 46 -30 25 -48 79 -102 128 -127 57 -28 183 -25 241
5 l44 23 49 -26 c125 -68 272 -32 359 88 l30 41 74 -3 c62 -2 83 1 127 22 110
51 168 141 176 272 5 95 -18 168 -73 232 l-34 40 34 33 c18 18 45 59 60 92 25
55 27 69 23 147 -4 67 -10 97 -31 137 -53 104 -172 174 -273 160 l-42 -5 -26
54 c-29 59 -74 103 -139 137 -62 33 -165 32 -232 -3 l-50 -25 -55 28 c-67 33
-130 42 -192 24z m412 -623 c210 -101 226 -114 201 -161 -22 -42 -47 -37 -197
37 -165 81 -153 88 -129 -70 17 -114 14 -136 -22 -150 -21 -8 -54 5 -222 85
-108 53 -202 105 -210 116 -11 16 -11 26 -3 45 21 46 49 41 197 -29 76 -36
140 -65 141 -63 2 2 -4 58 -13 125 -16 117 -16 122 2 142 10 11 27 20 37 20
10 0 108 -44 218 -97z"/>
<path d="M12801 13544 c-21 -15 -23 -22 -18 -65 3 -27 3 -49 -1 -49 -4 0 -40
12 -79 26 -69 25 -74 26 -98 10 -21 -14 -26 -24 -23 -49 4 -37 15 -44 183
-102 123 -43 160 -43 171 0 3 14 1 39 -5 56 -6 18 -9 34 -7 37 3 2 40 -8 83
-22 102 -34 140 -34 155 -1 8 18 8 31 0 49 -10 22 -97 55 -317 120 -12 3 -31
-1 -44 -10z"/>
<path d="M13313 12608 c-6 -7 -25 -41 -43 -75 -18 -35 -36 -63 -39 -63 -3 1
-15 15 -26 33 -22 35 -65 48 -90 27 -8 -7 -49 -72 -92 -145 -60 -104 -80 -132
-90 -123 -30 24 -154 179 -202 251 l-52 77 -782 -2 -782 -3 -3 -1722 -2 -1723
2705 0 2705 0 0 1725 0 1725 -600 0 -599 0 -32 -47 c-18 -27 -44 -62 -58 -79
-14 -17 -31 -39 -37 -50 -10 -17 -16 -9 -53 63 -46 92 -77 121 -110 103 -48
-25 -46 -44 16 -166 l58 -115 -69 -62 c-208 -188 -463 -319 -723 -371 -114
-24 -291 -34 -430 -25 -263 17 -508 100 -728 247 -133 89 -131 88 -114 109 9
10 34 51 58 91 23 39 44 72 46 72 3 0 13 -17 24 -39 21 -41 44 -53 78 -40 20
7 147 230 160 280 11 42 -67 81 -94 47z m1182 -848 c718 -47 1166 -191 1456
-467 215 -204 326 -440 368 -783 7 -48 11 -290 11 -567 l0 -483 -420 0 -420 0
0 368 c0 400 -7 466 -55 548 -29 49 -60 74 -92 74 l-23 0 0 -495 0 -495 -509
0 c-476 0 -509 1 -513 18 -3 9 -72 448 -154 975 -82 526 -151 957 -154 957 -3
0 -72 -431 -153 -957 -82 -527 -151 -966 -154 -975 -4 -17 -37 -18 -514 -18
l-509 0 0 495 0 495 -24 0 c-57 0 -117 -93 -136 -210 -5 -36 -10 -226 -10
-423 l0 -357 -417 2 -418 3 -3 465 c-3 465 3 587 33 735 88 423 352 728 779
900 253 101 591 167 1001 194 181 12 848 12 1030 1z"/>
<path d="M10630 8815 c0 -9 7 -31 14 -50 l15 -35 3154 0 3154 0 11 25 c7 14
12 37 12 50 l0 25 -3180 0 c-2850 0 -3180 -2 -3180 -15z"/>
</g>
</svg>
